HIERARCHY
ROOT Hips
{
	OFFSET 0.00000 0.00000 0.00000
	CHANNELS 6 Xposition Yposition Zposition Zrotation Yrotation Xrotation 
	JOINT LHipJoint
	{
		OFFSET 0 0 0
		CHANNELS 3 Zrotation Yrotation Xrotation
		JOINT LeftHip
		{
			OFFSET 1.64577 -1.42384 0.94276
			CHANNELS 3 Zrotation Yrotation Xrotation
			JOINT LeftKnee
			{
				OFFSET 2.11538 -5.81197 0.00000
				CHANNELS 3 Zrotation Yrotation Xrotation
				JOINT LeftAnkle
				{
					OFFSET 2.36541 -6.49893 0.00000
					CHANNELS 3 Zrotation Yrotation Xrotation
					JOINT LeftToe
					{
						OFFSET 0.17759 -0.48793 1.73865
						CHANNELS 3 Zrotation Yrotation Xrotation
						End Site
						{
							OFFSET 0.00000 -0.00000 0.91205
						}
					}
				}
			}
		}
	}
	JOINT RHipJoint
	{
		OFFSET 0 0 0
		CHANNELS 3 Zrotation Yrotation Xrotation
		JOINT RightHip
		{
			OFFSET -1.43750 -1.42384 0.94276
			CHANNELS 3 Zrotation Yrotation Xrotation
			JOINT RightKnee
			{
				OFFSET -2.10480 -5.78291 0.00000
				CHANNELS 3 Zrotation Yrotation Xrotation
				JOINT RightAnkle
				{
					OFFSET -2.34880 -6.45329 0.00000
					CHANNELS 3 Zrotation Yrotation Xrotation
					JOINT RightToe
					{
						OFFSET -0.22842 -0.62757 1.80469
						CHANNELS 3 Zrotation Yrotation Xrotation
						End Site
						{
							OFFSET -0.00000 -0.00000 0.95886
						}
					}
				}
			}
		}
	}
	JOINT lowerback
	{
		OFFSET 0 0 0
		CHANNELS 3 Zrotation Yrotation Xrotation
		JOINT Chest
		{
			OFFSET 0.06217 1.93758 -0.49272
			CHANNELS 3 Zrotation Yrotation Xrotation
			JOINT Chest2
			{
				OFFSET -0.03114 2.03621 -0.05830
				CHANNELS 3 Zrotation Yrotation Xrotation
				JOINT lowerneck
				{
					OFFSET 0 0 0
					CHANNELS 3 Zrotation Yrotation Xrotation
					JOINT Neck
					{
						OFFSET 0.04421 1.41010 0.26562
						CHANNELS 3 Zrotation Yrotation Xrotation
						JOINT Head
						{
							OFFSET -0.13407 1.43847 0.06181
							CHANNELS 3 Zrotation Yrotation Xrotation
							End Site
							{
								OFFSET -0.04980 1.45844 -0.00689
							}
						}
					}
				}
				JOINT LeftCollar
				{
					OFFSET 0 0 0
					CHANNELS 3 Zrotation Yrotation Xrotation
					JOINT LeftShoulder
					{
						OFFSET 2.18382 1.47753 -0.35694
CHANNELS 3 Zrotation Xrotation Yrotation
						JOINT LeftElbow
						{
OFFSET 0 -5.054600 0.000000
CHANNELS 3 Zrotation Xrotation Yrotation
							JOINT LeftWrist
							{
OFFSET 0 -3.390130 0.000000
CHANNELS 3 Zrotation Xrotation Yrotation
								JOINT lhand
								{
									OFFSET 0 0 0
CHANNELS 3 Zrotation Xrotation Yrotation
									JOINT LFingers
									{
OFFSET 0 -0.572420 -0.000000
CHANNELS 3 Zrotation Xrotation Yrotation
										End Site
										{
OFFSET 0 -0.461500 -0.000000
										}
									}
								}
								JOINT LThumb
								{
OFFSET 0 0.000000 0.000000
CHANNELS 3 Zrotation Xrotation Yrotation
									End Site
									{
OFFSET 0 -0.468550 0.468550
									}
								}
							}
						}
					}
				}
				JOINT RightCollar
				{
					OFFSET 0 0 0
					CHANNELS 3 Zrotation Yrotation Xrotation
					JOINT RightShoulder
					{
						OFFSET -2.06033 1.72839 -0.47437
CHANNELS 3 Zrotation Xrotation Yrotation
						JOINT RightElbow
						{
OFFSET 0 -5.070100 0.000000
CHANNELS 3 Zrotation Xrotation Yrotation
							JOINT RightWrist
							{
OFFSET 0 -3.149570 -0.000000
CHANNELS 3 Zrotation Xrotation Yrotation
								JOINT rhand
								{
									OFFSET 0 0 0
CHANNELS 3 Zrotation Xrotation Yrotation
									JOINT RFingers
									{
OFFSET 0 -0.718190 -0.000000
CHANNELS 3 Zrotation Xrotation Yrotation
										End Site
										{
OFFSET 0 -0.579020 -0.000000
										}
									}
								}
								JOINT RThumb
								{
OFFSET 0 0.000000 0.000000
CHANNELS 3 Zrotation Xrotation Yrotation
									End Site
									{
OFFSET 0 -0.587860 0.587860
									}
								}
							}
						}
					}
				}
			}
		}
	}
}
MOTION
Frames: 4
Frame Time: 0.008333333333333333
11.836789 19.088891 -0.601347 -180.058746 -128.480533 -183.781750 0.000000 0.000000 0.000000 -25.617820 -21.718388 -1.898618 2.494824 9.828475 28.423069 0.173086 0.400550 7.637958 2.407056 -9.666737 -27.904338 0.000000 0.000000 0.000000 22.877807 -0.446045 -12.766354 -4.782168 -13.134076 39.872634 0.529445 -27.989332 -36.482229 -0.228658 -3.052270 8.426292 4.934137 3.796998 11.631158 -1.341002 5.489744 3.259104 -4.883739 2.710350 -2.476653 12.465912 13.220939 -3.037101 -20.593157 17.344631 -4.258072 -7.341028 8.538031 2.267382 0.000000 0.000000 0.000000 33.799096 27.679410 -21.402081 59.712316 -56.226679 34.103229 42.575248 -1.732366 -13.471128 0.000000 0.000000 0.000000 -7.125000 0.000000 0.000000 14.724657 47.444283 -0.906997 0.000000 0.000000 0.000000 -17.344453 10.997361 25.771647 -73.578762 -58.936890 -45.831292 -28.642667 -27.551662 -0.129504 0.000000 0.000000 0.000000 7.125000 0.000000 0.000000 -1.635727 29.830926 -0.603917
11.783368 19.286273 -0.670041 -180.382239 -133.525598 -183.603249 0.000000 0.000000 0.000000 -25.224861 -21.313765 -1.708453 2.503073 9.843425 28.471206 0.247257 0.314651 9.275075 2.444367 -9.736011 -28.126014 0.000000 0.000000 0.000000 22.342820 -0.296736 -13.936662 -4.826503 -13.185629 40.067503 0.810536 -28.496996 -35.722086 -0.312173 -3.588610 9.922477 4.600012 3.463195 12.083274 -1.443205 5.012431 3.639111 -4.767617 2.481650 -2.402160 12.467137 13.039216 -3.367102 -20.827270 17.093892 -4.140017 -7.414684 8.397292 2.341747 0.000000 0.000000 0.000000 33.706688 26.134830 -20.254842 58.317947 -55.843836 32.945487 42.089945 -1.686097 -13.527385 0.000000 0.000000 0.000000 -7.125000 0.000000 0.000000 14.240772 47.424048 -0.868590 0.000000 0.000000 0.000000 -16.845360 12.547483 24.825142 -70.687886 -58.539871 -43.357477 -28.930202 -27.638786 0.345489 0.000000 0.000000 0.000000 7.125000 0.000000 0.000000 -1.871580 30.371777 -0.668551
11.720109 19.468074 -0.735741 -180.719174 -138.115454 -183.272604 0.000000 0.000000 0.000000 -24.449220 -20.506786 -1.873962 2.477593 9.796907 28.321556 0.277068 0.264129 9.844865 2.140913 -9.137258 -26.237599 0.000000 0.000000 0.000000 21.855920 0.715514 -14.739504 -4.814441 -13.171680 40.014665 1.284708 -28.311093 -32.375319 -0.126412 -1.697069 4.687623 4.374221 3.273715 12.592460 -1.595572 4.743170 3.877422 -4.795328 2.350285 -2.464962 12.605657 12.864947 -3.467298 -20.775121 16.849996 -4.110681 -7.440802 8.275495 2.333624 0.000000 0.000000 0.000000 33.915634 25.148232 -19.972989 57.247907 -55.526801 32.062397 42.671847 -1.814886 -13.832143 0.000000 0.000000 0.000000 -7.125000 0.000000 0.000000 14.882199 47.923363 -1.101720 0.000000 0.000000 0.000000 -16.241416 14.107686 23.978599 -67.648839 -57.999812 -40.776061 -29.055083 -27.495617 0.257550 0.000000 0.000000 0.000000 7.125000 0.000000 0.000000 -1.968426 30.271303 -0.708317
11.652456 19.634720 -0.798033 -181.139090 -142.708022 -182.963786 0.000000 0.000000 0.000000 -23.698492 -19.954932 -1.934975 2.446362 9.739546 28.137421 0.268134 0.224532 9.667397 1.936743 -8.733034 -24.963707 0.000000 0.000000 0.000000 21.497777 1.794792 -15.314477 -4.784304 -13.136579 39.882110 1.744348 -28.039781 -28.399624 -0.214262 1.124761 -3.158733 4.342444 3.023999 13.181979 -1.755509 4.421524 4.141324 -4.935139 2.194047 -2.533556 12.891780 12.669094 -3.142987 -21.073048 16.540319 -4.638961 -7.649021 8.161247 2.133792 0.000000 0.000000 0.000000 34.140307 24.229724 -19.568158 56.172806 -55.196988 31.177764 42.992809 -2.168538 -14.182970 0.000000 0.000000 0.000000 -7.125000 0.000000 0.000000 15.263742 48.430174 -1.319318 0.000000 0.000000 0.000000 -15.513939 15.603078 23.187301 -64.725422 -57.424836 -38.303018 -29.258713 -27.274985 0.031240 0.000000 0.000000 0.000000 7.125000 0.000000 0.000000 -2.123372 30.011570 -0.778371
